<svg
	xmlns="http://www.w3.org/2000/svg"
	width="40"
	height="40"
	fill="#2563eb"
>
	<path
		fill-rule="evenodd"
		clip-rule="evenodd"
		d="M20.00001796875,39.999969009041784 C31.04571796875,39.999969009041784 40.00001796875,31.045669009041788 40.00001796875,19.999969009041788 C40.00001796875,8.954309009041786 31.04571796875,9.041786208641156e-9 20.00001796875,9.041786208641156e-9 C8.95428796875,9.041786208641156e-9 -3.1249999921101335e-8,8.954309009041786 -3.1249999921101335e-8,19.999969009041788 C-3.1249999921101335e-8,31.045669009041788 8.95428796875,39.999969009041784 20.00001796875,39.999969009041784 zM26.23931796875,9.316839009041786 C26.54301796875,8.238049009041786 25.49611796875,7.600129009041786 24.54001796875,8.281299009041787 L11.19311796875,17.789569009041788 C10.15621796875,18.528269009041786 10.31931796875,19.999969009041788 11.43811796875,19.999969009041788 L14.952717968750001,19.999969009041788 V19.972769009041787 H21.80251796875 L16.22121796875,21.942069009041788 L13.76071796875,30.683169009041787 C13.45701796875,31.761969009041785 14.50381796875,32.39986900904179 15.460017968750002,31.718669009041786 L28.80691796875,22.210469009041788 C29.84381796875,21.471769009041786 29.68061796875,19.999969009041788 28.56191796875,19.999969009041788 L23.23211796875,19.999969009041788 L26.23931796875,9.316839009041786 z"
		class="ccustom"
		fill="#2563eb"
		id="svg_10"
	/>
</svg>

